<svg xmlns="http://www.w3.org/2000/svg" id="Layer_1" data-name="Layer 1" viewBox="0 0 847.33 111.61"><defs><style>.cls-1{fill:#fff;}.cls-2{fill:#0980ac;}</style></defs><path class="cls-1" d="M5.05,109.27l1.12-1.92a10.61,10.61,0,0,0,6.36,2.11c3.65,0,6-2,6-5.89v-2a7.82,7.82,0,0,1-6.49,3.5,7.66,7.66,0,0,1-7.77-7.76v-.06a7.69,7.69,0,0,1,7.77-7.82,7.72,7.72,0,0,1,6.46,3.34v-3H21V103.5a8,8,0,0,1-2.11,5.87,8.69,8.69,0,0,1-6.3,2.21A13,13,0,0,1,5.05,109.27Zm13.56-12v-.06c0-3.4-2.94-5.61-6.08-5.61a5.47,5.47,0,0,0-5.72,5.58v.06a5.6,5.6,0,0,0,5.72,5.64A5.84,5.84,0,0,0,18.61,97.32Z"></path><path class="cls-1" d="M24.66,98.15v-.06c0-4.77,3.35-8.62,7.92-8.62,4.9,0,7.71,3.91,7.71,8.75a6.87,6.87,0,0,1,0,.8H27.15a5.77,5.77,0,0,0,5.82,5.6,6.82,6.82,0,0,0,5.21-2.33l1.53,1.37a8.51,8.51,0,0,1-6.81,3.11C28.36,106.77,24.66,103.28,24.66,98.15Zm13.14-1c-.26-3-2-5.63-5.28-5.63-2.88,0-5.05,2.4-5.37,5.63Z"></path><path class="cls-1" d="M44.67,102V92h-2.3V89.83h2.3v-5h2.47v5h5.24V92H47.14v9.68c0,2,1.12,2.75,2.78,2.75a5.2,5.2,0,0,0,2.39-.57V106a6.15,6.15,0,0,1-3,.7C46.69,106.67,44.67,105.36,44.67,102Z"></path><path class="cls-1" d="M63.7,98.19v-.07a8.6,8.6,0,0,1,15.09-5.7l-1.63,1.73a6.66,6.66,0,0,0-5-2.5,6.1,6.1,0,0,0-5.91,6.41v.06a6.18,6.18,0,0,0,6.07,6.44,6.84,6.84,0,0,0,5-2.46l1.57,1.47A8.55,8.55,0,0,1,63.7,98.19Z"></path><path class="cls-1" d="M80.68,98.19v-.07a8.62,8.62,0,1,1,17.23-.06v.06a8.58,8.58,0,0,1-8.66,8.65A8.48,8.48,0,0,1,80.68,98.19Zm14.71,0v-.07a6.26,6.26,0,0,0-6.14-6.47,6.11,6.11,0,0,0-6,6.41v.06a6.21,6.21,0,0,0,6.11,6.44A6.1,6.1,0,0,0,95.39,98.19Z"></path><path class="cls-1" d="M101.56,89.83H104v2.88a6.25,6.25,0,0,1,5.65-3.24c4,0,6.34,2.7,6.34,6.63v10.29h-2.47V96.71c0-3.07-1.66-5-4.57-5a4.87,4.87,0,0,0-5,5.19v9.48h-2.47Z"></path><path class="cls-1" d="M120.46,89.83h2.47v2.88a6.25,6.25,0,0,1,5.65-3.24c4,0,6.33,2.7,6.33,6.63v10.29h-2.46V96.71c0-3.07-1.66-5-4.57-5a4.87,4.87,0,0,0-4.95,5.19v9.48h-2.47Z"></path><path class="cls-1" d="M138.34,98.15v-.06c0-4.77,3.36-8.62,7.93-8.62,4.89,0,7.7,3.91,7.7,8.75a6.87,6.87,0,0,1,0,.8h-13.1a5.76,5.76,0,0,0,5.81,5.6,6.82,6.82,0,0,0,5.21-2.33l1.54,1.37a8.52,8.52,0,0,1-6.81,3.11A8.23,8.23,0,0,1,138.34,98.15Zm13.14-1c-.26-3-2-5.63-5.27-5.63-2.88,0-5.06,2.4-5.37,5.63Z"></path><path class="cls-1" d="M156.47,98.19v-.07a8.6,8.6,0,0,1,15.09-5.7l-1.63,1.73a6.66,6.66,0,0,0-5-2.5A6.11,6.11,0,0,0,159,98.06v.06a6.18,6.18,0,0,0,6.07,6.44,6.88,6.88,0,0,0,5.06-2.46l1.56,1.47a8.55,8.55,0,0,1-15.22-5.38Z"></path><path class="cls-1" d="M175.82,102V92h-2.3V89.83h2.3v-5h2.46v5h5.24V92h-5.24v9.68c0,2,1.12,2.75,2.78,2.75a5.21,5.21,0,0,0,2.4-.57V106a6.15,6.15,0,0,1-3,.7C177.84,106.67,175.82,105.36,175.82,102Z"></path><path class="cls-1" d="M185.58,98.15v-.06c0-4.77,3.35-8.62,7.92-8.62,4.89,0,7.71,3.91,7.71,8.75a6.87,6.87,0,0,1,0,.8H188.07a5.77,5.77,0,0,0,5.82,5.6,6.82,6.82,0,0,0,5.21-2.33l1.53,1.37a8.51,8.51,0,0,1-6.81,3.11C189.28,106.77,185.58,103.28,185.58,98.15Zm13.13-1c-.25-3-2-5.63-5.27-5.63-2.88,0-5.05,2.4-5.37,5.63Z"></path><path class="cls-1" d="M203.77,98.15v-.06c0-5.41,3.93-8.62,7.9-8.62A7.45,7.45,0,0,1,218,93V83h2.46v23.39H218v-3.33a7.46,7.46,0,0,1-6.33,3.68C207.7,106.74,203.77,103.6,203.77,98.15Zm14.32,0v-.06a6.16,6.16,0,0,0-6-6.38c-3.19,0-5.81,2.37-5.81,6.38v.06c0,3.91,2.71,6.41,5.81,6.41A6.18,6.18,0,0,0,218.09,98.12Z"></path><path class="cls-1" d="M636.53,42v-.16c0-16.76,12.52-30.48,30.33-30.48,10.84,0,17.4,3.79,23,9.17l-6.64,7.67c-4.71-4.38-9.75-7.33-16.47-7.33-11.18,0-19.41,9.26-19.41,20.8v.17c0,11.53,8.15,20.88,19.41,20.88,7.23,0,11.85-2.87,16.89-7.58l6.64,6.73c-6.14,6.4-12.86,10.44-23.87,10.44C649.3,72.29,636.53,58.91,636.53,42Z"></path><path class="cls-1" d="M716,22H697.37v-9.6h47.72V22H726.44V71.28H716Z"></path><rect class="cls-1" x="586.32" y="12.35" width="40.68" height="9.26"></rect><rect class="cls-1" x="586.32" y="36.93" width="40.78" height="9.26"></rect><path class="cls-1" d="M342.25,42v-.16c0-16.76,12.52-30.48,30.34-30.48,10.84,0,17.39,3.79,23,9.17L389,28.18c-4.7-4.38-9.75-7.33-16.47-7.33-11.17,0-19.41,9.26-19.41,20.8v.17c0,11.53,8.15,20.88,19.41,20.88,7.23,0,11.85-2.87,16.89-7.58L396,61.85c-6.13,6.4-12.86,10.44-23.86,10.44C355,72.29,342.25,58.91,342.25,42Z"></path><path class="cls-1" d="M400.26,42v-.16c0-16.59,12.77-30.48,30.84-30.48s30.67,13.72,30.67,30.31v.17c0,16.58-12.77,30.47-30.84,30.47S400.26,58.57,400.26,42Zm50.67,0v-.16c0-11.46-8.32-21-20-21S411.1,30.2,411.1,41.65v.17c0,11.45,8.32,20.88,20,20.88S450.93,53.43,450.93,42Z"></path><path class="cls-1" d="M470.59,12.35h9.58L511.68,53.1V12.35h10.17V71.28H513.2L480.76,29.35V71.28H470.59Z"></path><rect class="cls-1" x="586.32" y="62.02" width="40.71" height="9.26"></rect><path class="cls-2" d="M232.58,104.27l1.25-1.76a9.61,9.61,0,0,0,5.72,2.11c2,0,3.42-1,3.42-2.62v-.07c0-1.66-1.95-2.3-4.12-2.91-2.59-.74-5.47-1.63-5.47-4.68v-.06c0-2.85,2.37-4.74,5.63-4.74a11.33,11.33,0,0,1,6,1.82l-1.12,1.86a9.39,9.39,0,0,0-4.89-1.6c-1.95,0-3.2,1-3.2,2.4v.07c0,1.57,2,2.18,4.25,2.85,2.56.77,5.31,1.76,5.31,4.74v.06c0,3.14-2.59,5-5.88,5A11.36,11.36,0,0,1,232.58,104.27Z"></path><path class="cls-2" d="M249.63,102V92h-2.3V89.83h2.3v-5h2.46v5h5.24V92h-5.24v9.68c0,2,1.12,2.75,2.78,2.75a5.24,5.24,0,0,0,2.4-.57V106a6.16,6.16,0,0,1-3,.7C251.64,106.67,249.63,105.36,249.63,102Z"></path><path class="cls-2" d="M259.64,101.58v-.06c0-3.49,2.87-5.35,7.06-5.35a17.8,17.8,0,0,1,5.09.7V96.3c0-3-1.83-4.52-4.93-4.52a11.44,11.44,0,0,0-5,1.22l-.73-2a13.65,13.65,0,0,1,6-1.38,7.25,7.25,0,0,1,5.34,1.83,6.53,6.53,0,0,1,1.69,4.84v10.12h-2.36v-2.5a7.25,7.25,0,0,1-6,2.85C262.74,106.74,259.64,105,259.64,101.58Zm12.18-1.28V98.7A17.38,17.38,0,0,0,267,98c-3.1,0-4.83,1.34-4.83,3.42v.07c0,2.08,1.92,3.3,4.16,3.3C269.33,104.79,271.82,102.93,271.82,100.3Z"></path><path class="cls-2" d="M290.33,89.83H293L286,106.93c-1.41,3.43-3,4.68-5.5,4.68a7.44,7.44,0,0,1-3.52-.84l.83-2a5.14,5.14,0,0,0,2.59.61c1.47,0,2.4-.77,3.39-3.11L276.3,89.83H279l6,13.8Z"></path><path class="cls-2" d="M303.83,98.19v-.07a8.6,8.6,0,0,1,15.09-5.7l-1.63,1.73a6.66,6.66,0,0,0-5-2.5,6.11,6.11,0,0,0-5.91,6.41v.06a6.18,6.18,0,0,0,6.07,6.44,6.84,6.84,0,0,0,5.05-2.46l1.57,1.47a8.55,8.55,0,0,1-15.22-5.38Z"></path><path class="cls-2" d="M320.81,98.19v-.07A8.62,8.62,0,1,1,338,98.06v.06a8.58,8.58,0,0,1-8.66,8.65A8.48,8.48,0,0,1,320.81,98.19Zm14.71,0v-.07a6.26,6.26,0,0,0-6.14-6.47,6.11,6.11,0,0,0-6,6.41v.06a6.21,6.21,0,0,0,6.11,6.44A6.1,6.1,0,0,0,335.52,98.19Z"></path><path class="cls-2" d="M341.7,89.83h2.46v2.88a6.27,6.27,0,0,1,5.66-3.24c4,0,6.33,2.7,6.33,6.63v10.29h-2.47V96.71c0-3.07-1.66-5-4.57-5a4.87,4.87,0,0,0-4.95,5.19v9.48H341.7Z"></path><path class="cls-2" d="M360.6,89.83h2.46v2.88a6.27,6.27,0,0,1,5.66-3.24c4,0,6.33,2.7,6.33,6.63v10.29h-2.47V96.71c0-3.07-1.66-5-4.57-5a4.87,4.87,0,0,0-4.95,5.19v9.48H360.6Z"></path><path class="cls-2" d="M378.47,98.15v-.06c0-4.77,3.36-8.62,7.93-8.62,4.89,0,7.71,3.91,7.71,8.75a5.16,5.16,0,0,1,0,.8H381a5.76,5.76,0,0,0,5.82,5.6,6.83,6.83,0,0,0,5.21-2.33l1.53,1.37a8.52,8.52,0,0,1-6.81,3.11A8.23,8.23,0,0,1,378.47,98.15Zm13.14-1c-.25-3-2-5.63-5.27-5.63-2.88,0-5,2.4-5.37,5.63Z"></path><path class="cls-2" d="M396.61,98.19v-.07a8.6,8.6,0,0,1,15.08-5.7l-1.63,1.73a6.65,6.65,0,0,0-5-2.5,6.11,6.11,0,0,0-5.92,6.41v.06a6.18,6.18,0,0,0,6.07,6.44,6.88,6.88,0,0,0,5.06-2.46l1.56,1.47a8.54,8.54,0,0,1-15.21-5.38Z"></path><path class="cls-2" d="M416,102V92h-2.3V89.83H416v-5h2.46v5h5.25V92h-5.25v9.68c0,2,1.12,2.75,2.78,2.75a5.21,5.21,0,0,0,2.4-.57V106a6.15,6.15,0,0,1-3,.7C418,106.67,416,105.36,416,102Z"></path><path class="cls-2" d="M425.71,98.15v-.06c0-4.77,3.35-8.62,7.92-8.62,4.89,0,7.71,3.91,7.71,8.75a6.87,6.87,0,0,1,0,.8H428.2a5.77,5.77,0,0,0,5.82,5.6,6.82,6.82,0,0,0,5.21-2.33l1.53,1.37a8.51,8.51,0,0,1-6.81,3.11C429.41,106.77,425.71,103.28,425.71,98.15Zm13.13-1c-.25-3-2-5.63-5.27-5.63-2.88,0-5.05,2.4-5.37,5.63Z"></path><path class="cls-2" d="M443.9,98.15v-.06c0-5.41,3.93-8.62,7.9-8.62A7.45,7.45,0,0,1,458.13,93V83h2.46v23.39h-2.46v-3.33a7.43,7.43,0,0,1-6.33,3.68C447.83,106.74,443.9,103.6,443.9,98.15Zm14.32,0v-.06a6.15,6.15,0,0,0-6-6.38c-3.2,0-5.82,2.37-5.82,6.38v.06c0,3.91,2.71,6.41,5.82,6.41A6.18,6.18,0,0,0,458.22,98.12Z"></path><rect class="cls-2" x="147.96" y="12.7" width="10.08" height="59.06"></rect><path class="cls-2" d="M26.46,37.34h0C14,34.67,13,32,13,28.36c0-4.11,4-7,9.79-7,5.37,0,10,1.76,14.67,5.56l1.55,1.26,6-7.91-1.46-1.18A30.43,30.43,0,0,0,23,11.91c-11.61,0-20,7.15-20,17.16C3,40.9,12.58,44.62,23,46.89c11.84,2.5,12.78,5.25,12.78,8.75,0,4.38-4.25,7.44-10.34,7.44-6.76,0-11.85-2.12-17.58-7.31L6.36,54.43,0,62l1.41,1.25c7.1,6.36,14.66,9.33,23.78,9.33,12.21,0,20.73-7.22,20.73-17.71C45.92,45.68,39.92,40.28,26.46,37.34Z"></path><polygon class="cls-2" points="112.65 54.51 98.91 12.54 90.99 12.54 77.25 54.51 63.39 14.02 62.95 12.7 52.06 12.7 73.09 72.16 81.04 72.16 94.83 31.48 108.55 72.16 116.57 72.16 137.6 12.7 126.95 12.7 112.65 54.51"></polygon><path class="cls-2" d="M261.18,55.65h0c-4.65,4.46-9.23,7.43-16.44,7.43-10.87,0-19.38-9.16-19.38-21s8.33-20.69,19.38-20.69c6,0,10.79,2.1,16,7l1.42,1.35L269,22.36,267.62,21c-5.1-4.81-11.39-9.27-22.8-9.27-16.7,0-29.78,13.38-29.78,30.63s12.7,30.32,29.54,30.32c11.71,0,18.4-5.19,23.4-10.27l1.37-1.38-6.81-6.7Z"></path><polygon class="cls-2" points="319 12.7 319 37.22 291.09 37.22 291.09 12.7 281.01 12.7 281.01 71.77 291.09 71.77 291.09 46.93 319 46.93 319 71.77 329.08 71.77 329.08 12.7 319 12.7"></polygon><polygon class="cls-2" points="166.36 22.33 184.85 22.33 184.85 71.61 195.01 71.61 195.01 22.33 213.49 22.33 213.49 12.7 166.36 12.7 166.36 22.33"></polygon><polygon class="cls-2" points="535.49 17.33 527.97 24.09 564.54 71.25 573.15 71.25 573.15 0.67 562.88 0.67 562.88 52.74 535.49 17.33"></polygon><path class="cls-2" d="M837.1,97.89a.68.68,0,0,1-.35.06l-1-.08c-2.65-.22-5.4-.45-7.66.61s-4.06,3.36-5.71,5.56l-.62.82a.71.71,0,0,1-1,.13.72.72,0,0,1-.14-1l.62-.81c1.76-2.34,3.58-4.75,6.25-6s5.55-1,8.39-.74l1,.08a.72.72,0,0,1,.24,1.38Z"></path><path class="cls-2" d="M821.21,105.67a1.22,1.22,0,0,1-.75-.26,1.19,1.19,0,0,1-.48-.82,1.28,1.28,0,0,1,.24-.93l.62-.81c1.8-2.39,3.66-4.86,6.45-6.16s5.74-1,8.66-.78l.95.08a1.2,1.2,0,0,1,.85.43,1.26,1.26,0,0,1-.42,1.94h0a1.25,1.25,0,0,1-.63.12l-.92-.08c-2.63-.22-5.3-.44-7.44.56s-3.89,3.25-5.51,5.39l-.62.83a1.23,1.23,0,0,1-.83.48Zm11.21-8.9a11,11,0,0,0-4.69.88c-2.55,1.19-4.33,3.55-6.05,5.83l-.62.82a.21.21,0,0,0,0,.27.14.14,0,0,0,.14,0,.19.19,0,0,0,.13-.07l.62-.82c1.69-2.25,3.44-4.57,5.91-5.72s5.2-.88,7.93-.65l1,.07h.09a.19.19,0,0,0,.11-.16.21.21,0,0,0,0-.15.18.18,0,0,0-.13-.06l-.94-.08C834.73,96.86,833.56,96.77,832.42,96.77Z"></path><path class="cls-2" d="M807.29,103.47a.72.72,0,0,1-1-1c.67-1.2,1.32-2.42,1.94-3.59,3-5.67,5.85-11,11.42-14.15,5.39-3,11.1-2.68,17.16-2.31,1.4.08,2.85.17,4.31.22a.72.72,0,0,1,.7.74.73.73,0,0,1-.74.69c-1.48,0-3-.13-4.36-.22-5.84-.35-11.35-.68-16.38,2.14-5.19,2.91-7.94,8.08-10.84,13.56-.63,1.18-1.28,2.41-2,3.62A.7.7,0,0,1,807.29,103.47Z"></path><path class="cls-2" d="M806.93,104.09a1.15,1.15,0,0,1-.6-.16,1.25,1.25,0,0,1-.48-1.69c.67-1.2,1.32-2.41,1.94-3.58,3-5.74,5.92-11.16,11.62-14.36,5.53-3.1,11.32-2.75,17.45-2.38,1.41.09,2.85.18,4.3.22a1.25,1.25,0,0,1-.08,2.49c-1.48,0-2.94-.14-4.35-.22-5.78-.35-11.22-.68-16.11,2.07-5.06,2.83-7.77,7.94-10.64,13.34-.63,1.2-1.28,2.42-2,3.64a1.21,1.21,0,0,1-.48.47A1.16,1.16,0,0,1,806.93,104.09Zm24.12-21.35a22,22,0,0,0-11.13,2.48c-5.43,3-8.23,8.34-11.2,13.93-.63,1.18-1.28,2.4-2,3.6a.29.29,0,0,0,0,.15.18.18,0,0,0,.09.11.17.17,0,0,0,.19,0h0a.16.16,0,0,0,.07-.07c.68-1.21,1.33-2.43,1.95-3.61,3-5.55,5.73-10.78,11.06-13.78,5.15-2.89,10.74-2.55,16.65-2.19,1.43.08,2.89.17,4.36.21a.22.22,0,0,0,.13,0,.18.18,0,0,0,.06-.13.19.19,0,0,0-.18-.19c-1.46,0-2.91-.14-4.31-.22C834.86,82.86,832.94,82.74,831.05,82.74Z"></path><path class="cls-2" d="M818.68,59.41a.79.79,0,0,1-.67,0,22.23,22.23,0,0,1-7.59-6.08,37.64,37.64,0,0,1-2.32,7.88A25.49,25.49,0,0,1,813.54,59a.79.79,0,0,1,.42,1.53,24.63,24.63,0,0,0-6.81,3.15.89.89,0,0,1-1.08,0,.9.9,0,0,1-.24-1.05c2-4.43,3.15-8.57,3.17-11.06a.92.92,0,0,1,1.69-.49,20.1,20.1,0,0,0,8,7,.8.8,0,0,1,.37,1.06A.76.76,0,0,1,818.68,59.41Zm-12.43,2.93h0Z"></path><path class="cls-2" d="M806.64,64.19a1.32,1.32,0,0,1-.82-.29,1.29,1.29,0,0,1-.35-1.52c1.95-4.39,3.12-8.46,3.13-10.9a1.32,1.32,0,0,1,2.43-.7,19.87,19.87,0,0,0,7.83,6.85,1.14,1.14,0,0,1,.6.67,1.15,1.15,0,0,1-.05.91,1.22,1.22,0,0,1-.56.56h0a1.18,1.18,0,0,1-1,0,22.87,22.87,0,0,1-7.16-5.51,39.06,39.06,0,0,1-1.81,6.11,25.31,25.31,0,0,1,4.58-1.79,1.18,1.18,0,0,1,1.45.83,1.2,1.2,0,0,1-.83,1.46,24.06,24.06,0,0,0-6.68,3.1A1.34,1.34,0,0,1,806.64,64.19Zm-.39-1.62-.06.13a.49.49,0,0,0,.14.59.48.48,0,0,0,.59,0,25,25,0,0,1,6.93-3.22.39.39,0,0,0,.28-.48.4.4,0,0,0-.49-.28,25.54,25.54,0,0,0-5.35,2.22l-.92.51-1,.64-.1-.24a.54.54,0,0,0,0,.11v0Zm.27-.63h.86l.36-.88A37.57,37.57,0,0,0,810,53.27l.13-.91.57.72a22,22,0,0,0,7.45,6,.38.38,0,0,0,.33,0h0a.4.4,0,0,0,.19-.18.42.42,0,0,0,0-.31.4.4,0,0,0-.2-.22,20.63,20.63,0,0,1-8.16-7.14.53.53,0,0,0-.59-.22.51.51,0,0,0-.38.5C809.38,53.88,808.31,57.75,806.52,61.94Z"></path><path class="cls-2" d="M833.44,103l-.12,0a14.66,14.66,0,0,0-5.1,2.39.67.67,0,0,1-.93-.16.66.66,0,0,1,.15-.93,16.21,16.21,0,0,1,5.56-2.6.67.67,0,0,1,.44,1.26Z"></path><path class="cls-2" d="M827.83,106.08l-.19,0a1.16,1.16,0,0,1-.78-.48,1.17,1.17,0,0,1-.21-.89,1.2,1.2,0,0,1,.48-.78,16.56,16.56,0,0,1,5.75-2.68,1.2,1.2,0,0,1,.78,2.25l-.23.08a14.16,14.16,0,0,0-4.91,2.29A1.14,1.14,0,0,1,827.83,106.08Zm5.33-3.83h0a15.65,15.65,0,0,0-5.39,2.51.16.16,0,0,0,0,.09.12.12,0,0,0,0,.11.12.12,0,0,0,.09,0l.11,0a15.06,15.06,0,0,1,5.28-2.47h0a.15.15,0,0,0,.08-.16A.16.16,0,0,0,833.16,102.25Z"></path><path class="cls-2" d="M764.43,40a.79.79,0,0,1-.26.08.64.64,0,0,1-.7-.57,45,45,0,0,1,.17-10.3.64.64,0,0,1,1.27.17,43.62,43.62,0,0,0-.17,10A.65.65,0,0,1,764.43,40Z"></path><path class="cls-2" d="M764.1,40.57a1.15,1.15,0,0,1-1.15-1,45.58,45.58,0,0,1,.17-10.43,1.17,1.17,0,0,1,1.31-1,1.16,1.16,0,0,1,1,1.31,43.63,43.63,0,0,0-.17,9.88,1.15,1.15,0,0,1-.56,1.12,1.19,1.19,0,0,1-.48.16Zm.18-11.43a.13.13,0,0,0-.12.1A45.12,45.12,0,0,0,764,39.42a.14.14,0,0,0,.13.1l0,0a.09.09,0,0,0,.05-.1,44.11,44.11,0,0,1,.18-10.13l-.1-.12Z"></path><path class="cls-2" d="M766.46,24a.66.66,0,0,1-.48,0,.65.65,0,0,1-.4-.81c3.17-9.35,9-16.4,16.37-19.85A29.9,29.9,0,0,1,793.65.61a.63.63,0,0,1,.66.62.64.64,0,0,1-.61.66,28.64,28.64,0,0,0-11.21,2.66c-7.07,3.3-12.65,10.09-15.7,19.1A.64.64,0,0,1,766.46,24Z"></path><path class="cls-2" d="M766.19,24.61a1.26,1.26,0,0,1-.38-.06,1.13,1.13,0,0,1-.66-.59,1.15,1.15,0,0,1-.06-.89c3.21-9.49,9.11-16.64,16.63-20.16A30.62,30.62,0,0,1,793.64.08a1.26,1.26,0,0,1,.83.32,1.14,1.14,0,0,1,.37.81,1.16,1.16,0,0,1-1.12,1.2,28.21,28.21,0,0,0-11,2.62c-6.94,3.24-12.42,9.91-15.42,18.79a1.14,1.14,0,0,1-.61.68h0A1.21,1.21,0,0,1,766.19,24.61ZM793.67,1.14a29.45,29.45,0,0,0-11.5,2.73c-7.26,3.39-13,10.33-16.09,19.54h0l.06.14.31.47-.22-.47a.14.14,0,0,0,0-.07c3.1-9.15,8.77-16,16-19.41a29.18,29.18,0,0,1,11.42-2.71.11.11,0,0,0,.11-.11Z"></path><path class="cls-2" d="M822,9.77a.64.64,0,0,1-.69,0,39.67,39.67,0,0,0-22-7.91.65.65,0,0,1-.62-.67.64.64,0,0,1,.66-.62,40.82,40.82,0,0,1,22.71,8.16.64.64,0,0,1,.14.9A.6.6,0,0,1,822,9.77Z"></path><path class="cls-2" d="M821.68,10.38a1.17,1.17,0,0,1-.69-.23,39.07,39.07,0,0,0-21.69-7.8,1.14,1.14,0,0,1-.82-.37,1.15,1.15,0,0,1-.32-.84,1.16,1.16,0,0,1,.37-.82,1.15,1.15,0,0,1,.84-.32,41.48,41.48,0,0,1,23,8.26,1.19,1.19,0,0,1,.46.77,1.17,1.17,0,0,1-.21.87,1.41,1.41,0,0,1-.39.34h0A1.22,1.22,0,0,1,821.68,10.38ZM799.33,1.06l-.12.11.12.12a40.18,40.18,0,0,1,22.28,8,.11.11,0,0,0,.13,0l0,0a.14.14,0,0,0,0-.17A40.37,40.37,0,0,0,799.33,1.06Z"></path><path class="cls-2" d="M838.33,27.34a.75.75,0,0,1-.74,0c-3.6-2.12-6.56-5.91-9.28-9.62l-.26-.36c-.54-.72-1.13-1.45-1.74-2.15a.76.76,0,0,1,1.15-1c.73.85,1.43,1.73,2.07,2.6l.05.07c2.62,3.56,5.45,7.18,8.78,9.15a.74.74,0,0,1,.26,1A.68.68,0,0,1,838.33,27.34Z"></path><path class="cls-2" d="M838,28a1.28,1.28,0,0,1-.65-.18c-3.68-2.17-6.68-6-9.43-9.77l-.27-.36c-.53-.71-1.1-1.42-1.7-2.11a1.29,1.29,0,0,1-.32-.94,1.31,1.31,0,0,1,.44-.88,1.29,1.29,0,0,1,1.81.13c.75.87,1.46,1.76,2.11,2.64,2.62,3.57,5.41,7.15,8.66,9.07a1.24,1.24,0,0,1,.59.79,1.28,1.28,0,0,1-.64,1.46h0A1.27,1.27,0,0,1,838,28Zm-11.09-13.5a.24.24,0,0,0-.15.06.21.21,0,0,0-.07.16.2.2,0,0,0,.05.16c.62.72,1.21,1.45,1.76,2.18l.26.37c2.69,3.66,5.62,7.41,9.13,9.48a.24.24,0,0,0,.22,0,.28.28,0,0,0,.09-.1.22.22,0,0,0-.08-.31c-3.43-2-6.29-5.7-8.93-9.29-.68-.93-1.37-1.79-2.1-2.64A.25.25,0,0,0,826.88,14.46Z"></path><path class="cls-2" d="M767.2,51.84a.64.64,0,0,1-.51,0,.63.63,0,0,1-.33-.83,38.24,38.24,0,0,0,3.21-14.09h0c.35-10.09,5.16-22.34,15.12-27,.46-.21.93-.42,1.45-.61a.62.62,0,0,1,.81.36.64.64,0,0,1-.36.81c-.49.19-.93.38-1.37.58C775.74,15.5,771.16,27.26,770.83,37a39.24,39.24,0,0,1-3.32,14.55A.67.67,0,0,1,767.2,51.84Z"></path><path class="cls-2" d="M766.93,52.42a1.15,1.15,0,0,1-1.07-.72,1.19,1.19,0,0,1,0-.89,37.59,37.59,0,0,0,3.18-13.89c.35-10.26,5.25-22.72,15.42-27.47.47-.22.95-.42,1.48-.63a1.17,1.17,0,0,1,1.49.67,1.16,1.16,0,0,1-.66,1.49c-.48.19-.91.37-1.33.57-9.28,4.33-13.77,15.9-14.1,25.43A39.88,39.88,0,0,1,768,51.72a1.17,1.17,0,0,1-.58.6h0A1.16,1.16,0,0,1,766.93,52.42ZM786.32,9.81c-.5.19-1,.39-1.41.6C775.15,15,770.44,27,770.1,36.94a38.68,38.68,0,0,1-3.26,14.29l0,.13H767a.23.23,0,0,0,0,0A38.89,38.89,0,0,0,770.3,37c.34-9.86,5-21.83,14.7-26.36.44-.21.9-.4,1.4-.59a.1.1,0,0,0,.06-.13Z"></path><path class="cls-2" d="M840.62,37a.71.71,0,0,1-.48,0c-6.52-1.68-10.94-7.45-14.4-12.87C818.15,13.4,804,7.5,792.07,10.18a.7.7,0,0,1-.3-1.37C804.22,6,819,12.15,826.89,23.41l0,0c4.7,7.37,8.76,11,13.57,12.29a.7.7,0,0,1,.51.85A.73.73,0,0,1,840.62,37Z"></path><path class="cls-2" d="M840.31,37.63a1,1,0,0,1-.3,0c-6.71-1.73-11.2-7.59-14.71-13.1-7.47-10.62-21.4-16.44-33.11-13.8a1.23,1.23,0,0,1-1.46-.93,1.21,1.21,0,0,1,.92-1.46c12.65-2.85,27.65,3.38,35.67,14.81,4.65,7.29,8.62,10.9,13.3,12.1a1.23,1.23,0,0,1,.24,2.29h0A1.17,1.17,0,0,1,840.31,37.63ZM798,9A35.56,35.56,0,0,1,826.17,23.9c3.42,5.36,7.75,11,14.1,12.67a.16.16,0,0,0,.12,0h0a.26.26,0,0,0,.09-.11.18.18,0,0,0-.13-.21c-5-1.28-9.11-5-13.88-12.52-7.8-11.1-22.34-17.16-34.59-14.39a.17.17,0,0,0-.13.2.18.18,0,0,0,.21.13A27.51,27.51,0,0,1,798,9Z"></path><path class="cls-2" d="M770,61.54a.64.64,0,0,1-.6,0,.66.66,0,0,1-.25-.9c5.2-9.12,6.16-16.75,6-21.55h0c0-8.46,3.92-18.78,12.48-22.79a22,22,0,0,1,17.38-.14,26.89,26.89,0,0,1,13.5,11.43l.3.53h0c.75,1.4,1.45,2.61,2.12,3.7a.66.66,0,1,1-1.11.7c-.78-1.25-1.58-2.65-2.45-4.3h0c-5.31-9.28-18.28-15.8-29.16-10.72-8,3.75-11.68,13.54-11.73,21.58.12,5-.87,12.84-6.21,22.22A.65.65,0,0,1,770,61.54Z"></path><path class="cls-2" d="M769.77,62.13a1.2,1.2,0,0,1-.59-.15,1.18,1.18,0,0,1-.44-1.62c5-8.73,6-16.07,6-20.82h0v-1h0c.19-8.53,4.18-18.74,12.78-22.76a22.52,22.52,0,0,1,17.79-.17A27.46,27.46,0,0,1,819.06,27.3l.55,1,0,0c.66,1.21,1.28,2.28,1.88,3.24a1.19,1.19,0,0,1-2,1.26c-.78-1.25-1.58-2.67-2.47-4.33C811.8,19.37,799.11,13,788.5,18c-7.83,3.65-11.38,13.23-11.42,21.1.11,5-.88,13-6.29,22.48a1.12,1.12,0,0,1-.52.49h0A1.25,1.25,0,0,1,769.77,62.13Zm6-23.07c.12,4.86-.85,12.59-6.11,21.82a.14.14,0,0,0,.05.18.12.12,0,0,0,.12,0s0,0,.06-.05c5.28-9.28,6.26-17.06,6.15-21.95,0-8.22,3.78-18.22,12-22.07,11.13-5.2,24.42,1.45,29.84,10.94.89,1.67,1.68,3.06,2.44,4.29a.13.13,0,0,0,.18,0,.14.14,0,0,0,.05-.18c-.68-1.1-1.39-2.32-2.15-3.73l-.23-.43h0l-.06-.09a26.33,26.33,0,0,0-13.23-11.2,21.49,21.49,0,0,0-17,.13c-8.36,3.91-12.14,14-12.19,22.31h0Z"></path><path class="cls-2" d="M843.67,45.42a.87.87,0,0,1-.4.09c-8.46-.52-14.08-1.94-19.5-7.95a.75.75,0,1,1,1.11-1c4.52,5,9.18,6.89,18.48,7.45a.76.76,0,0,1,.7.8A.74.74,0,0,1,843.67,45.42Z"></path><path class="cls-2" d="M843.32,46h-.08c-8.6-.52-14.32-2-19.86-8.12a1.25,1.25,0,0,1-.33-.92,1.21,1.21,0,0,1,.42-.88,1.26,1.26,0,0,1,1.8.09c4.41,4.89,9,6.72,18.12,7.28a1.28,1.28,0,0,1,1.2,1.35,1.3,1.3,0,0,1-.66,1.05h0A1.24,1.24,0,0,1,843.32,46Zm-19-9.2a.22.22,0,0,0-.15.06.21.21,0,0,0-.07.16.21.21,0,0,0,.06.16c5.3,5.87,10.82,7.26,19.14,7.77a.27.27,0,0,0,.12,0,.23.23,0,0,0,.12-.18.2.2,0,0,0-.06-.16.21.21,0,0,0-.15-.08c-9.46-.57-14.22-2.5-18.84-7.62A.25.25,0,0,0,824.32,36.83Z"></path><path class="cls-2" d="M772.73,70.55a.69.69,0,0,1-.85-1c8.68-12.4,9.88-22.72,9.36-29.2v0c-.17-6.3,2.72-14.52,9.49-17.68a17.21,17.21,0,0,1,15.2.71.7.7,0,0,1,.29.93.68.68,0,0,1-.92.29,15.84,15.84,0,0,0-14-.69c-6.2,2.9-8.85,10.52-8.69,16.38.54,6.7-.69,17.36-9.6,30.08A.67.67,0,0,1,772.73,70.55Z"></path><path class="cls-2" d="M772.44,71.14a1.23,1.23,0,0,1-.69-.22,1.22,1.22,0,0,1-.3-1.69C780,57,781.23,46.77,780.71,40.38c-.18-6.53,2.8-15,9.78-18.23a17.69,17.69,0,0,1,15.67.72A1.21,1.21,0,0,1,806,25.1a1.18,1.18,0,0,1-.92-.08,15.33,15.33,0,0,0-13.53-.68c-6,2.8-8.55,10.2-8.39,15.89.54,6.75-.7,17.54-9.7,30.39A1.19,1.19,0,0,1,773,71,1.26,1.26,0,0,1,772.44,71.14ZM797.36,21.7a15.17,15.17,0,0,0-6.42,1.4c-6.55,3.06-9.35,11-9.18,17.18.53,6.58-.68,17-9.45,29.56a.16.16,0,0,0,0,.22.18.18,0,0,0,.16,0h0a.13.13,0,0,0,.06,0c8.82-12.6,10-23.12,9.51-29.74-.17-6.05,2.58-13.9,9-16.89a16.34,16.34,0,0,1,14.46.69.18.18,0,0,0,.21-.06.17.17,0,0,0-.06-.22A18.29,18.29,0,0,0,797.36,21.7Z"></path><path class="cls-2" d="M845.49,52.7a.74.74,0,0,1-.34.07c-15.79-.7-22.56-1.7-31.75-19.64v-.05a17.91,17.91,0,0,0-4.81-6,.7.7,0,1,1,.89-1.08,19.27,19.27,0,0,1,5.18,6.48v0c8.73,17.06,14.68,18.17,30.57,18.87a.7.7,0,0,1,.27,1.33Z"></path><path class="cls-2" d="M845.19,53.3h-.06c-16-.71-22.88-1.72-32.2-19.93a17.47,17.47,0,0,0-4.69-5.88,1.23,1.23,0,0,1,1.55-1.9,19.82,19.82,0,0,1,5.32,6.65c8.61,16.82,14.46,17.91,30.13,18.6a1.23,1.23,0,0,1,1.17,1.28,1.21,1.21,0,0,1-.69,1.05h0A1.09,1.09,0,0,1,845.19,53.3ZM809,26.37a.2.2,0,0,0-.14.06.17.17,0,0,0,0,.24,18.39,18.39,0,0,1,4.94,6.18c9.07,17.72,15.75,18.7,31.33,19.39l.31.46-.23-.47a.21.21,0,0,0,.1-.15.17.17,0,0,0-.17-.18c-16.12-.71-22.14-1.84-31-19.16a19,19,0,0,0-5-6.34Z"></path><path class="cls-2" d="M774.61,77.76a.75.75,0,0,1-.77-.13.73.73,0,0,1-.05-1,65.51,65.51,0,0,0,12.67-19.29.74.74,0,0,1,.95-.4.72.72,0,0,1,.4.94,67,67,0,0,1-12.94,19.73A.87.87,0,0,1,774.61,77.76Z"></path><path class="cls-2" d="M774.33,78.34a1.26,1.26,0,0,1-.84-.32,1.27,1.27,0,0,1-.09-1.78A65.3,65.3,0,0,0,786,57.11a1.25,1.25,0,0,1,1.63-.69,1.21,1.21,0,0,1,.68.67,1.23,1.23,0,0,1,0,1,67.33,67.33,0,0,1-13,19.88,1.32,1.32,0,0,1-.46.32A1.27,1.27,0,0,1,774.33,78.34Zm12.81-21a.21.21,0,0,0-.19.13A66.07,66.07,0,0,1,774.18,77a.21.21,0,0,0,0,.29.19.19,0,0,0,.21,0h0a.12.12,0,0,0,.07,0,66.56,66.56,0,0,0,12.85-19.56.23.23,0,0,0-.12-.26A.1.1,0,0,0,787.14,57.38Z"></path><path class="cls-2" d="M819.6,53.12a.66.66,0,0,1-.7-.08c-4.14-3.28-7.56-7.88-10.44-14.07L807,35.85c-2.25-4.84-8.16-7.24-12.65-5.14-3.77,1.76-5.38,6.34-5,10a31.58,31.58,0,0,1-.42,13,.67.67,0,1,1-1.3-.3A30.1,30.1,0,0,0,788,40.94v-.09c-.4-4,1.24-9.23,5.79-11.35,5.13-2.4,11.87.3,14.42,5.78l1.47,3.12c2.8,6,6.09,10.45,10.07,13.59a.67.67,0,0,1,.11.94A.61.61,0,0,1,819.6,53.12Z"></path><path class="cls-2" d="M788.23,54.73a1.2,1.2,0,0,1-1-.56,1.27,1.27,0,0,1-.15-.91A29.4,29.4,0,0,0,787.47,41l0-.14c-.41-4.16,1.32-9.65,6.1-11.88,5.39-2.52,12.45.3,15.12,6l1.47,3.12c2.76,5.92,6,10.31,9.91,13.4a1.21,1.21,0,0,1,.45.8,1.17,1.17,0,0,1-.25.88,1.2,1.2,0,0,1-.43.34h0a1.18,1.18,0,0,1-1.24-.14c-4.22-3.33-7.68-8-10.6-14.27l-1.47-3.12a9.87,9.87,0,0,0-5.21-4.9,8.48,8.48,0,0,0-6.74,0c-3.55,1.66-5.07,6-4.73,9.45a32.09,32.09,0,0,1-.44,13.17A1.2,1.2,0,0,1,788.23,54.73Zm9.6-25.59A9.16,9.16,0,0,0,794,30c-4.31,2-5.87,7-5.49,10.82a30.68,30.68,0,0,1-.41,12.71.14.14,0,0,0,.11.17.13.13,0,0,0,.16-.11,30.88,30.88,0,0,0,.42-12.78c-.37-3.86,1.34-8.69,5.33-10.55a9.53,9.53,0,0,1,7.59,0,11,11,0,0,1,5.76,5.43l1.47,3.13c2.85,6.11,6.22,10.65,10.3,13.88a.12.12,0,0,0,.14,0,.07.07,0,0,0,0,0,.08.08,0,0,0,0-.1.11.11,0,0,0-.05-.09c-4-3.2-7.38-7.71-10.21-13.78l-1.47-3.13A11.17,11.17,0,0,0,797.83,29.14Z"></path><path class="cls-2" d="M846.4,59.92a.59.59,0,0,1-.29.07c-8,0-16.31-.46-23.49-4.44a.71.71,0,0,1,.68-1.24c6.9,3.83,15,4.31,22.8,4.27a.7.7,0,0,1,.3,1.34Z"></path><path class="cls-2" d="M845.23,60.52c-7.76,0-15.84-.62-22.87-4.51a1.25,1.25,0,0,1-.48-1.68,1.29,1.29,0,0,1,.74-.59,1.21,1.21,0,0,1,.93.11c6.8,3.77,14.86,4.26,22.55,4.2h0a1.24,1.24,0,0,1,.87.36,1.24,1.24,0,0,1-.35,2,1.27,1.27,0,0,1-.51.12ZM823,54.75h-.05a.19.19,0,0,0-.11.08.21.21,0,0,0,.07.25C830,59,838.22,59.51,846.1,59.46h.08a.21.21,0,0,0,.1-.17.21.21,0,0,0-.18-.17c-7.83.06-16.05-.46-23.06-4.34Z"></path><path class="cls-2" d="M788.05,94a.72.72,0,0,1-.84-.16.73.73,0,0,1,0-1,85.61,85.61,0,0,0,9-11c1.29-1.76,2.51-3.43,3.82-5a.73.73,0,0,1,1-.11.76.76,0,0,1,.12,1c-1.29,1.59-2.5,3.25-3.78,5a86.22,86.22,0,0,1-9.21,11.12A.8.8,0,0,1,788.05,94Z"></path><path class="cls-2" d="M787.74,94.58a1.25,1.25,0,0,1-.91-.38,1.21,1.21,0,0,1-.36-.9,1.23,1.23,0,0,1,.38-.9,84.64,84.64,0,0,0,9-10.88c1.3-1.76,2.52-3.43,3.84-5.07a1.27,1.27,0,0,1,2,1.6c-1.29,1.6-2.49,3.24-3.77,5a86.92,86.92,0,0,1-9.26,11.19,1.48,1.48,0,0,1-.35.25h0A1.23,1.23,0,0,1,787.74,94.58ZM800.67,77a.21.21,0,0,0-.17.08c-1.31,1.62-2.52,3.28-3.81,5a87,87,0,0,1-9.1,11,.23.23,0,0,0,0,.3.22.22,0,0,0,.25.05l.06,0A85.38,85.38,0,0,0,797,82.4c1.28-1.74,2.49-3.39,3.8-5a.22.22,0,0,0-.17-.35Z"></path><path class="cls-2" d="M846,65.43a.56.56,0,0,1-.21.06,60.83,60.83,0,0,1-12.55,0c-6.45-.5-12.53-1-20.73,2.86a28.22,28.22,0,0,0-8.39,6,.67.67,0,0,1-1,0,.69.69,0,0,1,0-1,29.33,29.33,0,0,1,8.79-6.29c8.52-4,14.78-3.5,21.41-3a60.42,60.42,0,0,0,12.29.06.68.68,0,0,1,.37,1.3Z"></path><path class="cls-2" d="M803.64,75a1.24,1.24,0,0,1-.85-.35,1.23,1.23,0,0,1,0-1.72,29.61,29.61,0,0,1,8.94-6.4c8.64-4,15-3.55,21.68-3a59.27,59.27,0,0,0,12.17.06,1.21,1.21,0,0,1,1.35,1.07,1.19,1.19,0,0,1-.69,1.24,1.14,1.14,0,0,1-.37.11,61.7,61.7,0,0,1-12.64,0c-6.38-.5-12.4-1-20.48,2.81a27.48,27.48,0,0,0-8.23,5.89A1.19,1.19,0,0,1,803.64,75Zm23.11-10.78a32.81,32.81,0,0,0-14.59,3.27,28.76,28.76,0,0,0-8.63,6.18.16.16,0,0,0,.23.23,28.48,28.48,0,0,1,8.54-6.12c8.32-3.89,14.48-3.41,21-2.9a61.31,61.31,0,0,0,12.45,0h0a.18.18,0,0,0,.09-.17.16.16,0,0,0-.18-.14,59.87,59.87,0,0,1-12.38-.06C831.12,64.42,829,64.26,826.75,64.26Z"></path><path class="cls-2" d="M800,100.34a.61.61,0,0,1-.74-.92c1.74-2.18,3.19-4.39,4.6-6.54l1-1.49a.6.6,0,0,1,.83-.17.61.61,0,0,1,.17.84l-1,1.49c-1.42,2.16-2.89,4.4-4.66,6.62A.55.55,0,0,1,800,100.34Z"></path><path class="cls-2" d="M799.73,100.93a1.14,1.14,0,0,1-.88-1.84c1.72-2.16,3.17-4.37,4.57-6.5l1-1.49a1.12,1.12,0,0,1,2,.4,1.15,1.15,0,0,1-.16.85l-1,1.49c-1.43,2.18-2.9,4.42-4.69,6.66a1.12,1.12,0,0,1-.37.31h0A1.16,1.16,0,0,1,799.73,100.93Zm5.62-9.28a.09.09,0,0,0-.07,0l-1,1.49c-1.41,2.15-2.88,4.38-4.63,6.58a.09.09,0,0,0,0,.11l.32.48-.23-.47,0,0c1.75-2.2,3.22-4.42,4.63-6.57l1-1.5,0-.11Z"></path><path class="cls-2" d="M843.19,78.56a.86.86,0,0,1-.23.06,67.2,67.2,0,0,1-10.59.08c-5.65-.26-10.53-.49-15.52,2a24,24,0,0,0-8.47,7.55.68.68,0,1,1-1.08-.82,25,25,0,0,1,9-8c5.29-2.66,10.58-2.41,16.18-2.15a65.67,65.67,0,0,0,10.38-.07.68.68,0,0,1,.75.6A.69.69,0,0,1,843.19,78.56Z"></path><path class="cls-2" d="M807.84,89.06a1.18,1.18,0,0,1-.72-.24,1.2,1.2,0,0,1-.24-1.69A25.64,25.64,0,0,1,816,79c5.42-2.73,10.78-2.48,16.45-2.21a64.65,64.65,0,0,0,10.3-.07,1.16,1.16,0,0,1,.88.27,1.19,1.19,0,0,1,.45.81,1.24,1.24,0,0,1-.66,1.21,1.55,1.55,0,0,1-.42.12,68.23,68.23,0,0,1-10.67.08c-5.58-.26-10.39-.49-15.25,2a23.34,23.34,0,0,0-8.28,7.4,1.19,1.19,0,0,1-.8.47Zm19.69-11.35a23.74,23.74,0,0,0-11,2.25,24.73,24.73,0,0,0-8.76,7.8.15.15,0,0,0,0,.21.14.14,0,0,0,.11,0,.15.15,0,0,0,.1-.07,24.64,24.64,0,0,1,8.66-7.71c5.1-2.56,10-2.33,15.77-2a67.39,67.39,0,0,0,10.51-.08l.05,0a.15.15,0,0,0,.09-.15.18.18,0,0,0-.17-.14,66.61,66.61,0,0,1-10.45.08C830.77,77.79,829.14,77.71,827.53,77.71Z"></path><path class="cls-2" d="M812.94,106.85a.67.67,0,0,1-.66,0,.68.68,0,0,1-.28-.94l.94-1.79c2.61-5,5.07-9.7,10.12-12.44a16.92,16.92,0,0,1,4.1-1.58.7.7,0,1,1,.34,1.35,15.68,15.68,0,0,0-3.78,1.46c-4.67,2.54-7,7.06-9.55,11.86-.31.6-.62,1.2-.94,1.8A.71.71,0,0,1,812.94,106.85Z"></path><path class="cls-2" d="M812.61,107.46a1.15,1.15,0,0,1-.57-.14,1.21,1.21,0,0,1-.6-.73,1.25,1.25,0,0,1,.09-.93c.32-.59.63-1.18.94-1.77,2.65-5.08,5.15-9.85,10.34-12.67A17.17,17.17,0,0,1,827,89.59a1.22,1.22,0,0,1,1.48.89,1.24,1.24,0,0,1-.9,1.49,14.93,14.93,0,0,0-3.64,1.4c-4.54,2.47-6.87,6.92-9.34,11.64l-.95,1.81a1.16,1.16,0,0,1-.49.49h0A1.26,1.26,0,0,1,812.61,107.46ZM827.33,90.6h0a16.49,16.49,0,0,0-4,1.53c-4.91,2.67-7.33,7.31-9.9,12.22l-.95,1.8a.19.19,0,0,0,.07.23.18.18,0,0,0,.16,0h0a.16.16,0,0,0,.07-.07c.32-.6.64-1.2,1-1.8,2.54-4.86,4.95-9.46,9.76-12.08a16.68,16.68,0,0,1,3.9-1.5.18.18,0,0,0,.13-.21A.18.18,0,0,0,827.33,90.6Z"></path><path class="cls-2" d="M839.19,90.49a.71.71,0,0,1-.38.08l-.78-.08a53.18,53.18,0,0,0-7.34-.44.66.66,0,0,1,0-1.32,55.24,55.24,0,0,1,7.51.44l.78.08a.66.66,0,0,1,.25,1.24Z"></path><path class="cls-2" d="M838.87,91.1h-.11L838,91a57.34,57.34,0,0,0-7.27-.44,1.12,1.12,0,0,1-.85-.32,1.19,1.19,0,0,1-.38-.83,1.23,1.23,0,0,1,.33-.85,1.18,1.18,0,0,1,.82-.37,57.74,57.74,0,0,1,7.59.45l.77.08a1.19,1.19,0,0,1,.45,2.22A1.13,1.13,0,0,1,838.87,91.1Zm-7.32-1.59a64.59,64.59,0,0,1,6.53.45l.78.08h.08a.14.14,0,0,0,.07-.11.14.14,0,0,0-.12-.14l-.78-.08a55.91,55.91,0,0,0-7.44-.45l-.13.14.13.13Z"></path><path class="cls-2" d="M777.17,84.33a.7.7,0,0,1-.73-1.16,79.66,79.66,0,0,0,9.75-10.82.69.69,0,1,1,1.12.82,80.65,80.65,0,0,1-9.92,11A.74.74,0,0,1,777.17,84.33Z"></path><path class="cls-2" d="M776.91,84.91a1.23,1.23,0,0,1-.83-2.13A78.08,78.08,0,0,0,785.77,72a1.22,1.22,0,1,1,2,1.46,81,81,0,0,1-10,11.09,1.28,1.28,0,0,1-.39.24A1.17,1.17,0,0,1,776.91,84.91Zm9.84-12.32a.17.17,0,0,0-.14.07,80.07,80.07,0,0,1-9.81,10.89.18.18,0,0,0,0,.25.2.2,0,0,0,.19,0h0a.1.1,0,0,0,0,0,79.6,79.6,0,0,0,9.86-10.94.18.18,0,0,0,0-.24A.17.17,0,0,0,786.75,72.59Z"></path><path class="cls-2" d="M789.55,69.68a.68.68,0,0,1-.63-.06.69.69,0,0,1-.21-1c7.26-11.51,7.42-20.74,6.87-25.22a.7.7,0,0,1,1.38-.17c.58,4.66.42,14.26-7.08,26.14A.66.66,0,0,1,789.55,69.68Z"></path><path class="cls-2" d="M789.3,70.26a1.21,1.21,0,0,1-.66-.19,1.23,1.23,0,0,1-.54-.77,1.24,1.24,0,0,1,.16-.92c7.18-11.38,7.34-20.47,6.8-24.87a1.23,1.23,0,0,1,1.06-1.37,1.25,1.25,0,0,1,1.37,1.07c.58,4.73.43,14.46-7.16,26.48a1.16,1.16,0,0,1-.59.48h0A1.32,1.32,0,0,1,789.3,70.26Zm7-27.07h0a.17.17,0,0,0-.15.19c.56,4.54.41,13.91-7,25.56a.2.2,0,0,0,.06.24.16.16,0,0,0,.15,0,.16.16,0,0,0,.08-.06c7.41-11.75,7.57-21.2,7-25.79A.16.16,0,0,0,796.27,43.19Z"></path><path class="cls-2" d="M781.69,90a.72.72,0,0,1-.77-.17.71.71,0,0,1,0-1c10.45-9.76,17.72-20.2,21-30.2,2.67-8.1,2.28-14.42,1-17.64l-.65-1.69a3,3,0,0,0-5.55-.14.7.7,0,0,1-.92.35.71.71,0,0,1-.35-.93,4.41,4.41,0,0,1,8.12.21l.65,1.69c1.35,3.44,1.8,10.13-1,18.59-3.42,10.36-10.62,20.72-21.39,30.78A.74.74,0,0,1,781.69,90Z"></path><path class="cls-2" d="M781.43,90.57a1.22,1.22,0,0,1-.89-.39,1.2,1.2,0,0,1-.33-.88,1.23,1.23,0,0,1,.39-.86c10.38-9.7,17.6-20.06,20.88-30,2.63-8,2.25-14.16,1-17.29l-.65-1.69a2.48,2.48,0,0,0-1.33-1.37,2.48,2.48,0,0,0-3.25,1.26,1.22,1.22,0,0,1-2.23-1,4.93,4.93,0,0,1,9.09.23l.65,1.69c1.39,3.53,1.86,10.35-1,19-3.45,10.44-10.7,20.87-21.53,31a1.58,1.58,0,0,1-.39.24h0A1.2,1.2,0,0,1,781.43,90.57Zm18.1-53.71a3.72,3.72,0,0,1,1.42.29,3.58,3.58,0,0,1,1.88,2l.66,1.69c1.29,3.3,1.71,9.76-1,18-3.33,10.07-10.65,20.59-21.16,30.42a.18.18,0,0,0,0,.24.17.17,0,0,0,.19,0h0l0,0c10.71-10,17.86-20.29,21.25-30.56,2.75-8.33,2.32-14.88,1-18.23l-.66-1.7A3.88,3.88,0,0,0,796,38.8a.17.17,0,0,0,.09.23.16.16,0,0,0,.22-.09,3.52,3.52,0,0,1,1.93-1.84A3.56,3.56,0,0,1,799.53,36.86Z"></path><path class="cls-2" d="M794.14,97.62a.72.72,0,0,1-.81-.12.73.73,0,0,1-.05-1,68.31,68.31,0,0,0,6.78-9.13c2.36-3.6,4.59-7,8-10a.73.73,0,1,1,1,1.1c-3.24,2.84-5.41,6.16-7.72,9.68a69.3,69.3,0,0,1-6.92,9.31A.69.69,0,0,1,794.14,97.62Z"></path><path class="cls-2" d="M793.82,98.22a1.25,1.25,0,0,1-.85-.33,1.23,1.23,0,0,1-.4-.87,1.26,1.26,0,0,1,.32-.91,67.74,67.74,0,0,0,6.73-9.06C802,83.42,804.25,80,807.69,77a1.27,1.27,0,0,1,.92-.31A1.27,1.27,0,0,1,809.78,78a1.28,1.28,0,0,1-.43.87c-3.18,2.79-5.34,6.08-7.63,9.57a70.68,70.68,0,0,1-7,9.37,1.24,1.24,0,0,1-.39.29A1.29,1.29,0,0,1,793.82,98.22Zm14.7-20.5a.25.25,0,0,0-.13,0c-3.34,2.93-5.55,6.3-7.89,9.87a69.93,69.93,0,0,1-6.83,9.19.23.23,0,0,0,0,.29.22.22,0,0,0,.23,0h0s0,0,.06-.05a69.37,69.37,0,0,0,6.87-9.24c2.33-3.55,4.52-6.9,7.82-9.79a.24.24,0,0,0,0-.29A.23.23,0,0,0,808.52,77.72Z"></path><path class="cls-2" d="M829.44,72a.65.65,0,0,1-.34.06c-4.08-.31-8.53-.39-14.05,2.26a28.39,28.39,0,0,0-2.56,1.39.66.66,0,0,1-.91-.22.66.66,0,0,1,.22-.92,27.19,27.19,0,0,1,2.67-1.45c5.82-2.8,10.47-2.71,14.73-2.39a.67.67,0,0,1,.24,1.27Z"></path><path class="cls-2" d="M812.15,76.36a1.17,1.17,0,0,1-1-.57,1.19,1.19,0,0,1-.15-.9,1.23,1.23,0,0,1,.54-.74,29.45,29.45,0,0,1,2.73-1.48c5.93-2.85,10.66-2.76,15-2.43a1.19,1.19,0,0,1,.82.41,1.23,1.23,0,0,1,.28.87,1.22,1.22,0,0,1-.67,1h0a1.11,1.11,0,0,1-.6.11c-4-.31-8.38-.39-13.78,2.21a24.9,24.9,0,0,0-2.51,1.36A1.29,1.29,0,0,1,812.15,76.36Zm13.5-5.23a24.29,24.29,0,0,0-10.95,2.49,28.61,28.61,0,0,0-2.63,1.43.17.17,0,0,0-.05.19.16.16,0,0,0,.2.05c.82-.5,1.69-1,2.6-1.42,5.64-2.7,10.17-2.62,14.32-2.3l.3.46-.23-.48a.13.13,0,0,0,.08-.11.14.14,0,0,0-.13-.15C828,71.2,826.86,71.13,825.65,71.13Z"></path><path class="cls-2" d="M844.53,72.15a.7.7,0,0,1-.19.06,42.37,42.37,0,0,1-10.87.34.73.73,0,0,1,.11-1.46,40.81,40.81,0,0,0,10.51-.32.73.73,0,0,1,.44,1.38Z"></path><path class="cls-2" d="M837.94,73.27c-1.59,0-3.08-.08-4.51-.19a1.25,1.25,0,0,1-.86-.44,1.26,1.26,0,0,1,1-2.08A40.22,40.22,0,0,0,844,70.25a1.26,1.26,0,0,1,1.45,1,1.27,1.27,0,0,1-.7,1.35h0a1.39,1.39,0,0,1-.33.1A38.05,38.05,0,0,1,837.94,73.27Zm-4.41-1.65a.21.21,0,0,0-.21.18.22.22,0,0,0,.19.22,41.76,41.76,0,0,0,10.74-.33l.28.46-.23-.48a.19.19,0,0,0,.11-.21.2.2,0,0,0-.23-.17,41.43,41.43,0,0,1-10.64.33Z"></path></svg>